# xmcd CD Database Entry
#
# Track frame offsets:
# 182
# 18557
# 34482
# 46757
# 63032
# 79682
# 95907
# 111257
# 126332
# 137205
# 147257
# 162717
# 172682
# 186110
# 199007
# 210630
#
# Disc length: 2953 seconds
#
# Revision: 3
# Processed by: cddbd v1.4PL0 Copyright (c) Steve Scherf et al.
# Submitted via: RSJCDWriter_freedb_lib_OS/2 1.02
#
DISCID=da0b8710,e70b8710
DTITLE=Hans Albers - Unvergängliche Lieder
DYEAR=1900
DGENRE=
TTITLE0=La Paloma
TTITLE1=Nimm mich mit, Kapitän, auf die Reise
TTITLE2=Kleine weiße Möwe
TTITLE3=Käpt'n Bay-Bay aus Shanghai
TTITLE4=O Signorina-rina-rina
TTITLE5=Auf der Reeperbahn nachts um halb eins
TTITLE6=In Hamburg an der Elbe
TTITLE7=Einmal noch nach Bombay
TTITLE8=Weine nicht
TTITLE9=Das letzte Hemd
TTITLE10=Ja, das Leben
TTITLE11=Das Herz von St. Pauli
TTITLE12=In einer Sternennacht am Hafen
TTITLE13=Sag, wie heißt du
TTITLE14=Mein Onkel hat Plantagen
TTITLE15=Nic ist braun wie eine Kaffeebohne
EXTD=
EXTT0=
EXTT1=
EXTT2=
EXTT3=
EXTT4=
EXTT5=
EXTT6=
EXTT7=
EXTT8=
EXTT9=
EXTT10=
EXTT11=
EXTT12=
EXTT13=
EXTT14=
EXTT15=
PLAYORDER=
